<svg width="20" height="20" viewBox="0 0 20 20" fill="none" xmlns="http://www.w3.org/2000/svg">
<path d="M9.83335 2.54123C9.00427 2.54123 8.17518 2.63653 7.36264 2.82712C5.11241 3.35496 3.35542 5.11195 2.82758 7.36218C2.44639 8.98727 2.44639 10.6785 2.82758 12.3036C3.35542 14.5538 5.11241 16.3108 7.36264 16.8387C8.98773 17.2199 10.679 17.2199 12.3041 16.8387C14.5543 16.3108 16.3113 14.5538 16.8391 12.3036C17.0297 11.4911 17.125 10.662 17.125 9.83287" stroke="white" stroke-width="1.45833" stroke-linecap="round"/>
<path d="M6.59259 11.0482L8.13128 9.83647C8.49664 9.54874 8.67932 9.40488 8.88134 9.43054C9.08335 9.45619 9.22427 9.64115 9.50611 10.0111L10.1605 10.87C10.4424 11.2399 10.5833 11.4249 10.7853 11.4506C10.9873 11.4762 11.17 11.3323 11.5354 11.0446L13.0741 9.83291" stroke="white" stroke-width="1.45833" stroke-linecap="round"/>
<path d="M17.125 4.97181C17.125 5.86672 16.3996 6.59218 15.5046 6.59218C14.6097 6.59218 13.8843 5.86672 13.8843 4.97181C13.8843 4.0769 14.6097 3.35144 15.5046 3.35144C16.3996 3.35144 17.125 4.0769 17.125 4.97181Z" stroke="white" stroke-width="1.45833"/>
</svg>
