<svg width="20" height="20" viewBox="0 0 20 20" fill="none" xmlns="http://www.w3.org/2000/svg">
<path d="M3.23518 13.2771L3.94009 13.0906L3.23518 13.2771ZM3.2404 8.78226L2.53549 8.59573L2.53549 8.59573L3.2404 8.78226ZM16.4263 8.78227L17.1312 8.59573L16.4263 8.78227ZM16.4315 13.2771L17.1364 13.4636L16.4315 13.2771ZM12.5813 16.8419L12.7298 17.5558L12.7298 17.5558L12.5813 16.8419ZM7.0854 16.8419L6.93695 17.5558L6.93696 17.5558L7.0854 16.8419ZM6.91407 5.27281L7.06251 5.98671L7.06251 5.98671L6.91407 5.27281ZM12.7526 5.27281L12.9011 4.55891L12.7526 5.27281ZM6.95952 16.8157L7.10796 16.1018L7.10796 16.1018L6.95952 16.8157ZM12.7072 16.8157L12.5587 16.1018L12.5587 16.1018L12.7072 16.8157ZM2.95606 10.6392H2.2269L3.68447 10.6725L2.95606 10.6392ZM5.46866 2.69568L5.27417 1.99293L5.27417 1.99293L5.46866 2.69568ZM10.8431 5.00809L10.8432 5.73725L11.9378 5.73705L11.5159 4.72702L10.8431 5.00809ZM2.95606 11.4504L3.68446 11.417L2.2269 11.4504H2.95606ZM2.95606 11.4644H2.2269V11.5911L2.26963 11.7104L2.95606 11.4644ZM2.95682 11.4666L2.27039 11.7125L3.68516 11.4318L2.95682 11.4666ZM12.0686 6.49614C11.6714 6.42963 11.2955 6.6977 11.229 7.09488C11.1625 7.49206 11.4306 7.86795 11.8277 7.93445L12.0686 6.49614ZM11.9827 7.22107L12.1031 6.50192L11.9827 7.22107ZM13.7567 10.1897C13.7567 10.5924 14.0832 10.9189 14.4859 10.9189C14.8886 10.9189 15.2151 10.5924 15.2151 10.1897H13.7567ZM12.5587 16.1018L12.4329 16.128L12.7298 17.5558L12.8556 17.5296L12.5587 16.1018ZM7.23384 16.128L7.10796 16.1018L6.81107 17.5296L6.93695 17.5558L7.23384 16.128ZM3.94009 13.0906C3.58488 11.7482 3.58921 10.3145 3.9453 8.96879L2.53549 8.59573C2.11559 10.1825 2.10949 11.8735 2.53028 13.4636L3.94009 13.0906ZM15.7214 8.9688C16.0775 10.3145 16.0818 11.7482 15.7266 13.0906L17.1364 13.4636C17.5572 11.8735 17.5511 10.1825 17.1312 8.59573L15.7214 8.9688ZM12.4329 16.128C10.718 16.4845 8.94869 16.4845 7.23384 16.128L6.93696 17.5558C8.84763 17.9531 10.8191 17.9531 12.7298 17.5558L12.4329 16.128ZM7.06251 5.98671C8.89038 5.60664 10.7763 5.60664 12.6042 5.98671L12.9011 4.55891C10.8774 4.13813 8.78932 4.13813 6.76563 4.55891L7.06251 5.98671ZM7.10796 16.1018C5.57156 15.7823 4.34422 14.6178 3.94009 13.0906L2.53028 13.4636C3.07497 15.522 4.73105 17.0971 6.81108 17.5296L7.10796 16.1018ZM12.8556 17.5296C14.9357 17.0971 16.5917 15.522 17.1364 13.4636L15.7266 13.0906C15.3225 14.6178 14.0951 15.7823 12.5587 16.1018L12.8556 17.5296ZM12.6042 5.98671C14.1084 6.29948 15.3234 7.46485 15.7214 8.9688L17.1312 8.59573C16.595 6.56929 14.9576 4.98652 12.9011 4.55891L12.6042 5.98671ZM6.76563 4.55891C4.70912 4.98652 3.07173 6.56929 2.53549 8.59573L3.9453 8.96879C4.34327 7.46485 5.55831 6.29948 7.06251 5.98671L6.76563 4.55891ZM2.2269 5.98623V10.6392H3.68523V5.98623H2.2269ZM5.27417 1.99293C3.49077 2.4865 2.2269 4.12156 2.2269 5.98623H3.68523C3.68523 4.78482 4.5042 3.71918 5.66315 3.39843L5.27417 1.99293ZM6.6005 1.81206C6.1531 1.81206 5.70374 1.87404 5.27417 1.99293L5.66315 3.39843C5.96778 3.31412 6.28635 3.2704 6.6005 3.2704V1.81206ZM7.29561 1.81206H6.6005V3.2704H7.29561V1.81206ZM11.5159 4.72702C11.1594 3.87359 10.5107 3.15288 9.7725 2.6466C9.03713 2.14229 8.1558 1.81206 7.29561 1.81206V3.2704C7.79753 3.2704 8.39656 3.47131 8.9477 3.84929C9.49599 4.2253 9.94001 4.73801 10.1703 5.28916L11.5159 4.72702ZM7.06251 5.98671C7.94105 5.80403 9.85927 5.73744 10.8432 5.73725L10.8429 4.27892C9.87227 4.2791 7.81111 4.34153 6.76563 4.55891L7.06251 5.98671ZM3.68447 10.6725C3.71079 10.0975 3.79803 9.52532 3.9453 8.96879L2.53549 8.59573C2.36149 9.25328 2.25868 9.92816 2.22766 10.6058L3.68447 10.6725ZM2.2269 11.4504V11.4644H3.68523V11.4504H2.2269ZM2.26963 11.7104L2.27039 11.7125L3.64325 11.2206L3.6425 11.2185L2.26963 11.7104ZM3.68516 11.4318C3.68492 11.4269 3.68469 11.4219 3.68446 11.417L2.22766 11.4838C2.22793 11.4896 2.2282 11.4955 2.22848 11.5013L3.68516 11.4318ZM11.8277 7.93445L11.8623 7.94023L12.1031 6.50192L12.0686 6.49614L11.8277 7.93445ZM11.8623 7.94023C12.953 8.12286 13.7567 9.07231 13.7567 10.1897H15.2151C15.2151 8.36469 13.9013 6.80301 12.1031 6.50192L11.8623 7.94023Z" fill="white"/>
</svg>
