<svg width="20" height="21" viewBox="0 0 20 21" fill="none" xmlns="http://www.w3.org/2000/svg">
<g clip-path="url(#clip0_5892_1106)">
<path d="M6.68516 10.2142L10.1225 13.6515M14.7056 13.6515L9.68278 18.6744C8.91718 19.4399 7.59996 19.0757 7.31841 18.0206L6.54931 15.1381C6.37359 14.4796 5.85712 13.9631 5.19858 13.7874L2.31615 13.0183C1.26099 12.7367 0.89676 11.4195 1.66236 10.6539L6.68522 5.63106L7.6144 4.70188C7.99801 4.31828 8.42493 3.96207 8.9447 3.80669C9.26111 3.71211 9.58888 3.65958 9.91941 3.65147C10.448 3.63849 10.9883 3.78357 12.0688 4.07373L12.1951 4.10766C13.3551 4.41916 13.9351 4.57491 14.4082 4.88184C14.827 5.15348 15.1832 5.50973 15.4549 5.92848C15.7618 6.40165 15.9175 6.98163 16.229 8.14158L16.263 8.26792C16.5531 9.34842 16.6982 9.88868 16.6852 10.4173C16.6771 10.7478 16.6246 11.0756 16.53 11.392C16.3746 11.9118 16.0184 12.3387 15.6348 12.7223L14.7056 13.6515Z" stroke="white" stroke-width="1.45833" stroke-linecap="round" stroke-linejoin="round"/>
<circle r="0.810185" transform="matrix(0.707106 0.707107 -0.707106 0.707107 12.7005 7.63624)" fill="white"/>
</g>
<defs>
<clipPath id="clip0_5892_1106">
<rect width="19.4444" height="19.4444" fill="white" transform="translate(0.111084 0.777344)"/>
</clipPath>
</defs>
</svg>
