<svg width="20" height="20" viewBox="0 0 20 20" fill="none" xmlns="http://www.w3.org/2000/svg">
<path d="M15.0834 15.5734H17.125M3.9028 10.2774L2.54169 10.313M3.9028 10.2774C3.9028 11.3512 4.77335 12.2218 5.84724 12.2218C6.92113 12.2218 7.79169 11.3512 7.79169 10.2774C7.79169 9.20347 6.92113 8.33291 5.84724 8.33291C4.77335 8.33291 3.9028 9.20347 3.9028 10.2774ZM8.34989 10.3131H17.125M10.4823 5.05266L2.54169 5.05266M17.125 5.05266H15.0834M2.54169 15.5734H10.4823M14.5972 15.6246C14.5972 16.6985 13.7267 17.569 12.6528 17.569C11.5789 17.569 10.7084 16.6985 10.7084 15.6246C10.7084 14.5507 11.5789 13.6801 12.6528 13.6801C13.7267 13.6801 14.5972 14.5507 14.5972 15.6246ZM14.5972 4.93013C14.5972 6.00402 13.7267 6.87458 12.6528 6.87458C11.5789 6.87458 10.7084 6.00402 10.7084 4.93013C10.7084 3.85624 11.5789 2.98569 12.6528 2.98569C13.7267 2.98569 14.5972 3.85624 14.5972 4.93013Z" stroke="white" stroke-width="1.45833" stroke-linecap="round"/>
</svg>
