<svg width="20" height="20" viewBox="0 0 20 20" fill="none" xmlns="http://www.w3.org/2000/svg">
<path d="M7.40277 7.29122H10.6435M7.40277 12.1523H9.83333M7.40277 9.72178H12.2639" stroke="white" stroke-width="1.45833" stroke-linecap="round"/>
<path d="M2.82758 7.25106C3.35542 5.00083 5.11241 3.24383 7.36264 2.716C8.98773 2.33481 10.679 2.33481 12.3041 2.716C14.5543 3.24383 16.3113 5.00083 16.8391 7.25106C17.2203 8.87615 17.2203 10.5674 16.8391 12.1925C16.3113 14.4427 14.5543 16.1997 12.3041 16.7275C10.679 17.1087 8.98773 17.1087 7.36264 16.7275C5.11241 16.1997 3.35542 14.4427 2.82758 12.1925C2.44639 10.5674 2.44639 8.87615 2.82758 7.25106Z" stroke="white" stroke-width="1.45833"/>
</svg>
