<svg width="20" height="20" viewBox="0 0 20 20" fill="none" xmlns="http://www.w3.org/2000/svg">
<path fill-rule="evenodd" clip-rule="evenodd" d="M6.02546 4.11759C8.51166 3.64487 11.0686 3.64487 13.5548 4.11759C14.7206 4.33925 15.6448 5.17703 15.96 6.26645L15.9991 6.4016C16.4705 8.03031 16.4704 9.75353 15.9991 11.3822L15.96 11.5174C15.6448 12.6068 14.7206 13.4446 13.5548 13.6662C11.0686 14.139 8.51166 14.139 6.02546 13.6662C4.85969 13.4446 3.93548 12.6068 3.62022 11.5174L3.58111 11.3822C3.10979 9.75353 3.10979 8.03031 3.58111 6.40159L3.62022 6.26645C3.93548 5.17703 4.85969 4.33925 6.02546 4.11759ZM13.8272 2.68492C11.161 2.17798 8.41925 2.17798 5.75306 2.68492C4.06473 3.00594 2.69206 4.22759 2.21936 5.86107L2.18026 5.99621C1.6323 7.88975 1.6323 9.89409 2.18026 11.7876L2.21936 11.9228C2.69206 13.5562 4.06473 14.7779 5.75306 15.0989C6.84646 15.3068 7.95256 15.4294 9.06095 15.4668V16.8881H7.65436C7.25165 16.8881 6.92519 17.2145 6.92519 17.6172C6.92519 18.0199 7.25165 18.3464 7.65436 18.3464H9.79012H11.9259C12.3286 18.3464 12.6551 18.0199 12.6551 17.6172C12.6551 17.2145 12.3286 16.8881 11.9259 16.8881H10.5193V15.4668C11.6277 15.4294 12.7338 15.3068 13.8272 15.0989C15.5155 14.7779 16.8882 13.5562 17.3609 11.9228L17.4 11.7876C17.9479 9.89409 17.9479 7.88975 17.4 5.99621L17.3609 5.86107C16.8882 4.22759 15.5155 3.00594 13.8272 2.68492ZM11.9433 10.2872L11.9167 10.3082C11.7577 10.4335 11.5862 10.5687 11.4262 10.663C11.239 10.7733 10.9759 10.885 10.6503 10.8436C10.3247 10.8023 10.0978 10.6284 9.94415 10.4748C9.81281 10.3435 9.68051 10.1697 9.55788 10.0086L9.53735 9.98165L8.88292 9.12271C8.82364 9.0449 8.77552 8.9818 8.73304 8.92788C8.67843 8.96947 8.61606 9.01854 8.53921 9.07906L7.00053 10.2908C6.68414 10.5399 6.22569 10.4854 5.97654 10.169C5.72739 9.85266 5.78189 9.3942 6.09827 9.14505L7.63696 7.93334L7.66356 7.91237C7.82257 7.78706 7.99411 7.65186 8.15411 7.55755C8.34132 7.4472 8.6044 7.33556 8.93001 7.37691C9.25563 7.41826 9.48245 7.59213 9.63613 7.74577C9.76748 7.87708 9.89977 8.05086 10.0224 8.21194L10.0429 8.2389L10.6974 9.09784C10.7566 9.17565 10.8048 9.23875 10.8472 9.29267C10.9019 9.25108 10.9642 9.20201 11.0411 9.14149L12.5798 7.92977C12.8961 7.68062 13.3546 7.73513 13.6037 8.05151C13.8529 8.36789 13.7984 8.82634 13.482 9.07549L11.9433 10.2872Z" fill="white"/>
</svg>
